<svg width="29" height="31" viewBox="0 0 29 31" fill="none" xmlns="http://www.w3.org/2000/svg">
<path d="M1.50039 10.7857C3.35747 5.21427 8.61935 1.5 14.5004 1.5C20.3814 1.5 25.6431 5.21427 27.5002 10.7857M27.5002 10.7857C27.5002 6.76189 26.2622 3.97618 26.2622 3.97618M27.5002 10.7857C25.0241 7.99998 22.5479 6.76189 22.5479 6.76189" stroke="#4B4F67" stroke-width="3" stroke-linecap="round" stroke-linejoin="round"/>
<path d="M27.5001 19.4524C25.643 25.0238 20.3811 28.738 14.5001 28.738C8.6191 28.738 3.35738 25.0238 1.50024 19.4524M1.50024 19.4524C1.50025 23.4761 2.73833 26.2619 2.73833 26.2619M1.50024 19.4524C3.97643 22.2381 6.45261 23.4761 6.45261 23.4761" stroke="#4B4F67" stroke-width="3" stroke-linecap="round" stroke-linejoin="round"/>
</svg>
